<svg width="864" height="263" viewBox="0 0 864 263" fill="none" xmlns="http://www.w3.org/2000/svg">
<path d="M349.936 103.314H322.611L322.465 88.2637H345.406C349.449 88.2637 352.761 87.7522 355.342 86.7294C357.924 85.6578 359.848 84.1235 361.114 82.1266C362.429 80.0809 363.087 77.5968 363.087 74.6744C363.087 71.3623 362.453 68.6834 361.187 66.6377C359.969 64.592 358.045 63.1064 355.415 62.181C352.834 61.2555 349.497 60.7928 345.406 60.7928H330.209V150H308.291V43.6235H345.406C351.592 43.6235 357.12 44.208 361.991 45.377C366.91 46.546 371.075 48.3238 374.484 50.7104C377.894 53.0971 380.499 56.1169 382.302 59.77C384.104 63.3743 385.005 67.6605 385.005 72.6287C385.005 77.0123 384.006 81.055 382.009 84.7567C380.061 88.4585 376.968 91.4783 372.731 93.8163C368.542 96.1542 363.062 97.445 356.292 97.6885L349.936 103.314ZM348.986 150H316.62L325.168 132.904H348.986C352.834 132.904 355.975 132.295 358.411 131.077C360.846 129.811 362.648 128.106 363.817 125.963C364.986 123.82 365.571 121.36 365.571 118.584C365.571 115.467 365.035 112.763 363.963 110.474C362.94 108.185 361.284 106.431 358.995 105.214C356.706 103.947 353.686 103.314 349.936 103.314H328.821L328.967 88.2637H355.269L360.31 94.1816C366.788 94.0842 372 95.2288 375.945 97.6154C379.939 99.9534 382.837 102.998 384.639 106.748C386.49 110.498 387.416 114.517 387.416 118.803C387.416 125.622 385.93 131.37 382.959 136.045C379.988 140.673 375.629 144.155 369.881 146.493C364.182 148.831 357.217 150 348.986 150ZM438.924 151.461C432.786 151.461 427.283 150.487 422.412 148.539C417.541 146.542 413.401 143.79 409.992 140.283C406.631 136.776 404.049 132.709 402.247 128.082C400.445 123.406 399.544 118.438 399.544 113.177V110.255C399.544 104.264 400.396 98.7844 402.101 93.8163C403.806 88.8481 406.241 84.5376 409.407 80.8845C412.622 77.2315 416.518 74.4308 421.097 72.4825C425.675 70.4855 430.838 69.487 436.586 69.487C442.187 69.487 447.155 70.4125 451.49 72.2634C455.825 74.1142 459.454 76.7444 462.376 80.1539C465.347 83.5634 467.588 87.6548 469.098 92.4281C470.608 97.1527 471.363 102.413 471.363 108.209V116.977H408.53V102.949H450.686V101.342C450.686 98.4191 450.151 95.8133 449.079 93.524C448.056 91.1861 446.498 89.3352 444.403 87.9714C442.309 86.6076 439.63 85.9257 436.366 85.9257C433.59 85.9257 431.204 86.5346 429.207 87.7522C427.21 88.9699 425.578 90.6747 424.311 92.8665C423.094 95.0583 422.168 97.6398 421.535 100.611C420.951 103.533 420.658 106.748 420.658 110.255V113.177C420.658 116.343 421.097 119.266 421.973 121.945C422.899 124.624 424.19 126.937 425.846 128.885C427.55 130.834 429.596 132.344 431.983 133.415C434.418 134.487 437.17 135.023 440.239 135.023C444.038 135.023 447.569 134.292 450.832 132.831C454.145 131.321 456.994 129.056 459.381 126.036L469.609 137.141C467.953 139.528 465.688 141.817 462.814 144.009C459.989 146.201 456.58 148.003 452.586 149.416C448.592 150.779 444.038 151.461 438.924 151.461ZM503.948 87.8253V150H482.906V70.9483H502.633L503.948 87.8253ZM500.879 107.698H495.18C495.18 101.853 495.935 96.5926 497.445 91.9167C498.955 87.1921 501.074 83.1738 503.802 79.8617C506.529 76.5009 509.768 73.9438 513.519 72.1903C517.318 70.3881 521.555 69.487 526.231 69.487C529.933 69.487 533.318 70.0228 536.387 71.0944C539.455 72.1659 542.085 73.8707 544.277 76.2086C546.518 78.5466 548.222 81.6395 549.391 85.4874C550.609 89.3352 551.218 94.0355 551.218 99.5881V150H530.03V99.515C530.03 96.0081 529.543 93.2805 528.569 91.3322C527.595 89.3839 526.158 88.0201 524.259 87.2408C522.408 86.4128 520.118 85.9988 517.391 85.9988C514.566 85.9988 512.106 86.5589 510.012 87.6792C507.966 88.7994 506.261 90.3581 504.897 92.3551C503.582 94.3033 502.584 96.5926 501.902 99.2228C501.22 101.853 500.879 104.678 500.879 107.698ZM603.603 151.461C597.465 151.461 591.962 150.487 587.091 148.539C582.22 146.542 578.08 143.79 574.67 140.283C571.31 136.776 568.728 132.709 566.926 128.082C565.124 123.406 564.223 118.438 564.223 113.177V110.255C564.223 104.264 565.075 98.7844 566.78 93.8163C568.485 88.8481 570.92 84.5376 574.086 80.8845C577.301 77.2315 581.197 74.4308 585.776 72.4825C590.354 70.4855 595.517 69.487 601.265 69.487C606.866 69.487 611.834 70.4125 616.169 72.2634C620.504 74.1142 624.133 76.7444 627.055 80.1539C630.026 83.5634 632.267 87.6548 633.777 92.4281C635.287 97.1527 636.042 102.413 636.042 108.209V116.977H573.209V102.949H615.365V101.342C615.365 98.4191 614.83 95.8133 613.758 93.524C612.735 91.1861 611.177 89.3352 609.082 87.9714C606.988 86.6076 604.309 85.9257 601.045 85.9257C598.269 85.9257 595.882 86.5346 593.885 87.7522C591.888 88.9699 590.257 90.6747 588.99 92.8665C587.773 95.0583 586.847 97.6398 586.214 100.611C585.63 103.533 585.337 106.748 585.337 110.255V113.177C585.337 116.343 585.776 119.266 586.652 121.945C587.578 124.624 588.869 126.937 590.525 128.885C592.229 130.834 594.275 132.344 596.662 133.415C599.097 134.487 601.849 135.023 604.918 135.023C608.717 135.023 612.248 134.292 615.511 132.831C618.824 131.321 621.673 129.056 624.06 126.036L634.288 137.141C632.632 139.528 630.367 141.817 627.493 144.009C624.668 146.201 621.259 148.003 617.265 149.416C613.271 150.779 608.717 151.461 603.603 151.461ZM674.325 150H653.211V67.3683C653.211 60.6467 654.575 54.9723 657.302 50.3451C660.078 45.7179 664.024 42.211 669.138 39.8244C674.301 37.4377 680.536 36.2444 687.842 36.2444C691.982 36.2444 696 36.6584 699.897 37.4864C703.793 38.2657 707.812 39.2886 711.952 40.555L708.883 57.432C706.204 56.604 703.33 55.8247 700.262 55.0941C697.193 54.3635 693.492 53.9982 689.157 53.9982C684.286 53.9982 680.584 55.1428 678.051 57.432C675.567 59.6725 674.325 62.9846 674.325 67.3683V150ZM690.033 70.9483V85.8527H641.448V70.9483H690.033ZM721.742 70.9483V150H700.627V70.9483H721.742ZM778.072 70.9483V85.8527H732.043V70.9483H778.072ZM743.441 51.441H764.482V126.182C764.482 128.471 764.775 130.225 765.359 131.443C765.992 132.66 766.918 133.513 768.135 134C769.353 134.438 770.887 134.657 772.738 134.657C774.053 134.657 775.222 134.609 776.245 134.511C777.317 134.365 778.218 134.219 778.948 134.073L779.021 149.562C777.219 150.146 775.271 150.609 773.177 150.95C771.082 151.291 768.769 151.461 766.236 151.461C761.609 151.461 757.566 150.706 754.108 149.196C750.698 147.638 748.068 145.154 746.217 141.744C744.366 138.335 743.441 133.854 743.441 128.301V51.441ZM832.794 128.155C832.794 126.645 832.356 125.281 831.479 124.063C830.602 122.846 828.971 121.725 826.584 120.703C824.246 119.631 820.861 118.657 816.429 117.78C812.435 116.903 808.708 115.808 805.25 114.492C801.841 113.129 798.87 111.497 796.337 109.597C793.853 107.698 791.904 105.457 790.492 102.876C789.079 100.246 788.373 97.2501 788.373 93.8893C788.373 90.5772 789.079 87.46 790.492 84.5376C791.953 81.6151 794.023 79.0336 796.702 76.7931C799.43 74.5039 802.742 72.7261 806.638 71.4597C810.584 70.1446 815.016 69.487 819.935 69.487C826.803 69.487 832.697 70.583 837.616 72.7748C842.584 74.9666 846.383 77.9864 849.014 81.8343C851.693 85.6335 853.032 89.9684 853.032 94.8391H831.99C831.99 92.7934 831.552 90.9669 830.675 89.3596C829.847 87.7035 828.532 86.4128 826.73 85.4874C824.977 84.5132 822.687 84.0261 819.862 84.0261C817.524 84.0261 815.503 84.4401 813.798 85.2682C812.094 86.0475 810.778 87.119 809.853 88.4828C808.976 89.7979 808.538 91.2592 808.538 92.8665C808.538 94.0842 808.782 95.1801 809.269 96.1542C809.804 97.0797 810.657 97.932 811.826 98.7113C812.995 99.4907 814.505 100.221 816.355 100.903C818.255 101.536 820.593 102.121 823.369 102.657C829.068 103.826 834.158 105.36 838.639 107.259C843.12 109.11 846.676 111.643 849.306 114.858C851.936 118.024 853.251 122.188 853.251 127.351C853.251 130.858 852.472 134.073 850.913 136.995C849.355 139.918 847.114 142.475 844.192 144.667C841.269 146.81 837.762 148.49 833.671 149.708C829.628 150.877 825.074 151.461 820.009 151.461C812.654 151.461 806.419 150.146 801.305 147.516C796.239 144.886 792.392 141.549 789.761 137.507C787.18 133.415 785.889 129.226 785.889 124.94H805.835C805.932 127.814 806.663 130.127 808.027 131.881C809.439 133.634 811.217 134.901 813.36 135.68C815.552 136.459 817.914 136.849 820.447 136.849C823.174 136.849 825.439 136.484 827.242 135.753C829.044 134.974 830.407 133.951 831.333 132.685C832.307 131.37 832.794 129.86 832.794 128.155Z" fill="white"/>
<path d="M477.021 236.197C477.021 235.616 476.93 235.103 476.748 234.658C476.577 234.202 476.269 233.792 475.825 233.428C475.392 233.063 474.788 232.715 474.013 232.385C473.249 232.054 472.281 231.718 471.107 231.376C469.876 231.012 468.765 230.607 467.774 230.163C466.782 229.707 465.933 229.188 465.227 228.607C464.52 228.026 463.979 227.359 463.603 226.607C463.227 225.855 463.039 224.994 463.039 224.026C463.039 223.057 463.238 222.163 463.637 221.342C464.036 220.522 464.606 219.809 465.346 219.205C466.098 218.59 466.993 218.111 468.03 217.769C469.067 217.428 470.224 217.257 471.5 217.257C473.369 217.257 474.953 217.616 476.252 218.334C477.563 219.04 478.56 219.969 479.244 221.12C479.927 222.259 480.269 223.479 480.269 224.778H476.987C476.987 223.843 476.788 223.017 476.389 222.299C475.99 221.57 475.386 221 474.577 220.59C473.768 220.168 472.742 219.957 471.5 219.957C470.326 219.957 469.358 220.134 468.594 220.487C467.831 220.841 467.261 221.319 466.885 221.923C466.52 222.527 466.338 223.217 466.338 223.992C466.338 224.516 466.446 224.994 466.663 225.428C466.89 225.849 467.238 226.242 467.705 226.607C468.184 226.972 468.788 227.308 469.517 227.616C470.258 227.923 471.141 228.22 472.167 228.504C473.58 228.903 474.799 229.348 475.825 229.838C476.851 230.328 477.694 230.881 478.355 231.496C479.027 232.1 479.523 232.789 479.842 233.564C480.172 234.328 480.338 235.194 480.338 236.163C480.338 237.177 480.133 238.094 479.722 238.915C479.312 239.735 478.725 240.436 477.962 241.017C477.198 241.598 476.281 242.049 475.21 242.368C474.15 242.675 472.965 242.829 471.654 242.829C470.503 242.829 469.369 242.67 468.252 242.351C467.147 242.031 466.138 241.553 465.227 240.915C464.326 240.276 463.603 239.49 463.056 238.556C462.52 237.61 462.252 236.516 462.252 235.274H465.534C465.534 236.128 465.7 236.863 466.03 237.479C466.361 238.083 466.811 238.584 467.381 238.983C467.962 239.382 468.617 239.678 469.346 239.872C470.087 240.054 470.856 240.145 471.654 240.145C472.805 240.145 473.779 239.986 474.577 239.667C475.375 239.348 475.979 238.892 476.389 238.299C476.811 237.707 477.021 237.006 477.021 236.197ZM495.38 238.214V223.992H498.56V242.487H495.534L495.38 238.214ZM495.979 234.316L497.295 234.282C497.295 235.513 497.164 236.653 496.902 237.701C496.651 238.738 496.241 239.638 495.671 240.402C495.101 241.165 494.355 241.764 493.432 242.197C492.509 242.618 491.386 242.829 490.064 242.829C489.164 242.829 488.338 242.698 487.586 242.436C486.845 242.174 486.207 241.769 485.671 241.222C485.135 240.675 484.719 239.963 484.423 239.086C484.138 238.208 483.996 237.154 483.996 235.923V223.992H487.158V235.957C487.158 236.789 487.249 237.479 487.432 238.026C487.625 238.561 487.882 238.989 488.201 239.308C488.531 239.616 488.896 239.832 489.295 239.957C489.705 240.083 490.127 240.145 490.56 240.145C491.905 240.145 492.97 239.889 493.756 239.376C494.543 238.852 495.107 238.151 495.449 237.274C495.802 236.385 495.979 235.399 495.979 234.316ZM506.543 227.547V249.598H503.363V223.992H506.269L506.543 227.547ZM519.004 233.086V233.445C519.004 234.789 518.845 236.037 518.526 237.188C518.207 238.328 517.739 239.319 517.124 240.163C516.52 241.006 515.773 241.661 514.885 242.128C513.996 242.596 512.976 242.829 511.825 242.829C510.651 242.829 509.614 242.635 508.714 242.248C507.813 241.861 507.05 241.296 506.423 240.556C505.796 239.815 505.295 238.926 504.919 237.889C504.554 236.852 504.303 235.684 504.167 234.385V232.47C504.303 231.103 504.56 229.878 504.936 228.795C505.312 227.712 505.808 226.789 506.423 226.026C507.05 225.251 507.808 224.664 508.697 224.265C509.585 223.855 510.611 223.65 511.774 223.65C512.936 223.65 513.967 223.878 514.868 224.334C515.768 224.778 516.526 225.416 517.141 226.248C517.756 227.08 518.218 228.077 518.526 229.239C518.845 230.39 519.004 231.673 519.004 233.086ZM515.825 233.445V233.086C515.825 232.163 515.728 231.296 515.534 230.487C515.34 229.667 515.038 228.949 514.628 228.334C514.229 227.707 513.717 227.217 513.09 226.863C512.463 226.499 511.717 226.316 510.85 226.316C510.053 226.316 509.358 226.453 508.765 226.727C508.184 227 507.688 227.371 507.278 227.838C506.868 228.294 506.531 228.818 506.269 229.41C506.019 229.992 505.831 230.596 505.705 231.222V235.65C505.933 236.447 506.252 237.2 506.662 237.906C507.073 238.601 507.62 239.165 508.303 239.598C508.987 240.02 509.848 240.231 510.885 240.231C511.739 240.231 512.474 240.054 513.09 239.701C513.717 239.336 514.229 238.841 514.628 238.214C515.038 237.587 515.34 236.869 515.534 236.06C515.728 235.239 515.825 234.368 515.825 233.445ZM526.201 227.547V249.598H523.021V223.992H525.927L526.201 227.547ZM538.662 233.086V233.445C538.662 234.789 538.503 236.037 538.184 237.188C537.865 238.328 537.397 239.319 536.782 240.163C536.178 241.006 535.432 241.661 534.543 242.128C533.654 242.596 532.634 242.829 531.483 242.829C530.309 242.829 529.272 242.635 528.372 242.248C527.471 241.861 526.708 241.296 526.081 240.556C525.454 239.815 524.953 238.926 524.577 237.889C524.212 236.852 523.961 235.684 523.825 234.385V232.47C523.961 231.103 524.218 229.878 524.594 228.795C524.97 227.712 525.466 226.789 526.081 226.026C526.708 225.251 527.466 224.664 528.355 224.265C529.244 223.855 530.269 223.65 531.432 223.65C532.594 223.65 533.625 223.878 534.526 224.334C535.426 224.778 536.184 225.416 536.799 226.248C537.414 227.08 537.876 228.077 538.184 229.239C538.503 230.39 538.662 231.673 538.662 233.086ZM535.483 233.445V233.086C535.483 232.163 535.386 231.296 535.192 230.487C534.998 229.667 534.696 228.949 534.286 228.334C533.887 227.707 533.375 227.217 532.748 226.863C532.121 226.499 531.375 226.316 530.508 226.316C529.711 226.316 529.016 226.453 528.423 226.727C527.842 227 527.346 227.371 526.936 227.838C526.526 228.294 526.189 228.818 525.927 229.41C525.677 229.992 525.489 230.596 525.363 231.222V235.65C525.591 236.447 525.91 237.2 526.32 237.906C526.731 238.601 527.278 239.165 527.961 239.598C528.645 240.02 529.506 240.231 530.543 240.231C531.397 240.231 532.132 240.054 532.748 239.701C533.375 239.336 533.887 238.841 534.286 238.214C534.696 237.587 534.998 236.869 535.192 236.06C535.386 235.239 535.483 234.368 535.483 233.445ZM541.859 233.445V233.051C541.859 231.718 542.053 230.482 542.44 229.342C542.828 228.191 543.386 227.194 544.115 226.351C544.845 225.496 545.728 224.835 546.765 224.368C547.802 223.889 548.964 223.65 550.252 223.65C551.551 223.65 552.719 223.889 553.756 224.368C554.805 224.835 555.694 225.496 556.423 226.351C557.164 227.194 557.728 228.191 558.115 229.342C558.503 230.482 558.696 231.718 558.696 233.051V233.445C558.696 234.778 558.503 236.014 558.115 237.154C557.728 238.294 557.164 239.291 556.423 240.145C555.694 240.989 554.81 241.65 553.773 242.128C552.748 242.596 551.585 242.829 550.286 242.829C548.987 242.829 547.819 242.596 546.782 242.128C545.745 241.65 544.856 240.989 544.115 240.145C543.386 239.291 542.828 238.294 542.44 237.154C542.053 236.014 541.859 234.778 541.859 233.445ZM545.021 233.051V233.445C545.021 234.368 545.13 235.239 545.346 236.06C545.563 236.869 545.887 237.587 546.32 238.214C546.765 238.841 547.318 239.336 547.979 239.701C548.639 240.054 549.409 240.231 550.286 240.231C551.152 240.231 551.91 240.054 552.56 239.701C553.221 239.336 553.768 238.841 554.201 238.214C554.634 237.587 554.959 236.869 555.175 236.06C555.403 235.239 555.517 234.368 555.517 233.445V233.051C555.517 232.14 555.403 231.279 555.175 230.47C554.959 229.65 554.628 228.926 554.184 228.299C553.751 227.661 553.204 227.16 552.543 226.795C551.893 226.43 551.129 226.248 550.252 226.248C549.386 226.248 548.622 226.43 547.961 226.795C547.312 227.16 546.765 227.661 546.32 228.299C545.887 228.926 545.563 229.65 545.346 230.47C545.13 231.279 545.021 232.14 545.021 233.051ZM565.825 226.898V242.487H562.662V223.992H565.739L565.825 226.898ZM571.602 223.889L571.585 226.829C571.323 226.772 571.072 226.738 570.833 226.727C570.605 226.704 570.343 226.692 570.047 226.692C569.317 226.692 568.674 226.806 568.115 227.034C567.557 227.262 567.084 227.581 566.696 227.992C566.309 228.402 566.001 228.892 565.773 229.462C565.557 230.02 565.414 230.635 565.346 231.308L564.457 231.821C564.457 230.704 564.565 229.655 564.782 228.675C565.01 227.695 565.357 226.829 565.825 226.077C566.292 225.314 566.884 224.721 567.602 224.299C568.332 223.866 569.198 223.65 570.201 223.65C570.429 223.65 570.691 223.678 570.987 223.735C571.283 223.781 571.488 223.832 571.602 223.889ZM583.124 223.992V226.419H573.124V223.992H583.124ZM576.508 219.496H579.671V237.906C579.671 238.533 579.768 239.006 579.961 239.325C580.155 239.644 580.406 239.855 580.713 239.957C581.021 240.06 581.352 240.111 581.705 240.111C581.967 240.111 582.24 240.088 582.525 240.043C582.822 239.986 583.044 239.94 583.192 239.906L583.209 242.487C582.958 242.567 582.628 242.641 582.218 242.71C581.819 242.789 581.335 242.829 580.765 242.829C579.99 242.829 579.278 242.675 578.628 242.368C577.978 242.06 577.46 241.547 577.072 240.829C576.696 240.1 576.508 239.12 576.508 237.889V219.496ZM595.5 216.231H598.679V238.898L598.406 242.487H595.5V216.231ZM611.175 233.086V233.445C611.175 234.789 611.015 236.037 610.696 237.188C610.377 238.328 609.91 239.319 609.295 240.163C608.679 241.006 607.927 241.661 607.038 242.128C606.149 242.596 605.129 242.829 603.978 242.829C602.805 242.829 601.773 242.63 600.884 242.231C600.007 241.821 599.266 241.234 598.662 240.47C598.058 239.707 597.574 238.784 597.209 237.701C596.856 236.618 596.611 235.399 596.474 234.043V232.47C596.611 231.103 596.856 229.878 597.209 228.795C597.574 227.712 598.058 226.789 598.662 226.026C599.266 225.251 600.007 224.664 600.884 224.265C601.762 223.855 602.782 223.65 603.944 223.65C605.106 223.65 606.138 223.878 607.038 224.334C607.938 224.778 608.691 225.416 609.295 226.248C609.91 227.08 610.377 228.077 610.696 229.239C611.015 230.39 611.175 231.673 611.175 233.086ZM607.995 233.445V233.086C607.995 232.163 607.91 231.296 607.739 230.487C607.568 229.667 607.295 228.949 606.918 228.334C606.542 227.707 606.047 227.217 605.431 226.863C604.816 226.499 604.058 226.316 603.158 226.316C602.36 226.316 601.665 226.453 601.072 226.727C600.491 227 599.995 227.371 599.585 227.838C599.175 228.294 598.839 228.818 598.577 229.41C598.326 229.992 598.138 230.596 598.013 231.222V235.342C598.195 236.14 598.491 236.909 598.901 237.65C599.323 238.379 599.881 238.977 600.577 239.445C601.283 239.912 602.155 240.145 603.192 240.145C604.047 240.145 604.776 239.974 605.38 239.633C605.995 239.279 606.491 238.795 606.867 238.18C607.255 237.564 607.54 236.852 607.722 236.043C607.904 235.234 607.995 234.368 607.995 233.445ZM620.166 240.573L625.312 223.992H628.696L621.277 245.342C621.106 245.798 620.879 246.288 620.594 246.812C620.32 247.348 619.967 247.855 619.534 248.333C619.101 248.812 618.577 249.2 617.961 249.496C617.357 249.804 616.634 249.957 615.79 249.957C615.54 249.957 615.22 249.923 614.833 249.855C614.445 249.786 614.172 249.729 614.012 249.684L613.995 247.12C614.087 247.131 614.229 247.143 614.423 247.154C614.628 247.177 614.77 247.188 614.85 247.188C615.568 247.188 616.178 247.091 616.679 246.898C617.181 246.715 617.602 246.402 617.944 245.957C618.297 245.524 618.599 244.926 618.85 244.163L620.166 240.573ZM616.389 223.992L621.192 238.351L622.012 241.684L619.739 242.846L612.936 223.992H616.389Z" fill="white"/>
<g clip-path="url(#clip0_19_6)">
<path d="M679.298 243.568C675.596 244.822 671.732 245.491 667.835 245.552C661.57 245.552 657.036 243.933 653.877 240.8C650.719 237.77 648.987 233.175 649.038 228.004C649.089 216.305 657.394 209.62 668.65 209.62C673.082 209.62 676.497 210.508 678.177 211.344L676.547 217.715C674.662 216.879 672.319 216.2 668.549 216.2C662.079 216.2 657.189 219.961 657.189 227.586C657.189 234.846 661.621 239.128 667.988 239.128C669.773 239.128 671.198 238.92 671.81 238.606V231.242H666.513V225.027H679.299L679.298 243.568Z" fill="white"/>
<path d="M681.727 228.024C681.727 224.264 681.625 221.808 681.523 219.615H688.197L688.452 224.315H688.656C689.931 220.607 692.987 219.04 695.381 219.04C695.927 219.018 696.473 219.053 697.011 219.145V226.614C696.323 226.476 695.624 226.407 694.922 226.405C692.069 226.405 690.133 227.972 689.624 230.426C689.518 231.012 689.467 231.607 689.471 232.203V245.155H681.728L681.727 228.024Z" fill="white"/>
<path d="M706.603 234.916C706.858 238.208 710.016 239.773 713.632 239.773C715.964 239.802 718.286 239.449 720.51 238.728L721.53 244.107C718.983 245.152 715.876 245.675 712.513 245.675C704.057 245.675 699.216 240.661 699.216 232.67C699.216 226.193 703.141 219.038 711.8 219.038C719.849 219.038 722.906 225.462 722.906 231.782C722.907 232.832 722.821 233.88 722.651 234.915L706.603 234.916ZM715.721 229.484C715.721 227.552 714.907 224.314 711.34 224.314C708.08 224.314 706.755 227.344 706.553 229.484H715.721Z" fill="white"/>
<path d="M740.91 245.149L740.451 242.59H740.298C738.668 244.627 736.12 245.724 733.166 245.724C728.122 245.724 725.117 241.964 725.117 237.89C725.117 231.257 730.924 228.071 739.738 228.124V227.758C739.738 226.4 739.024 224.467 735.203 224.467C732.788 224.492 730.419 225.158 728.327 226.4L726.9 221.282C728.632 220.289 732.045 219.036 736.579 219.036C744.883 219.036 747.532 224.049 747.532 230.056V238.935C747.532 241.389 747.634 243.739 747.888 245.15L740.91 245.149ZM739.993 233.085C735.917 233.033 732.758 234.026 732.758 237.106C732.758 239.143 734.083 240.136 735.816 240.136C736.7 240.142 737.563 239.864 738.285 239.339C739.007 238.814 739.551 238.07 739.84 237.211C739.944 236.767 739.995 236.311 739.993 235.853V233.085Z" fill="white"/>
<path d="M761 212.309V219.622H766.553V225.472H761V234.716C761 237.798 761.713 239.208 764.057 239.208C764.826 239.209 765.593 239.139 766.349 238.999L766.4 245.005C765.382 245.423 763.547 245.684 761.358 245.684C758.862 245.684 756.773 244.796 755.551 243.49C754.124 241.975 753.412 239.521 753.412 235.918V225.47H750.1V219.621H753.412V214.085L761 212.309Z" fill="white"/>
<path d="M768.771 210.365C772.246 209.85 775.754 209.605 779.265 209.635C785.786 209.635 790.015 210.835 793.327 213.395C796.893 216.111 799.134 220.446 799.134 226.661C799.134 233.398 796.74 238.047 793.428 240.919C789.812 244.001 784.31 245.464 777.585 245.464C774.639 245.488 771.695 245.314 768.772 244.942L768.771 210.365ZM776.566 239.09C777.459 239.23 778.363 239.283 779.265 239.247C786.296 239.3 790.88 235.33 790.88 226.921C790.932 219.608 786.754 215.744 780.081 215.744C778.902 215.717 777.723 215.822 776.566 216.058V239.09Z" fill="white"/>
<path d="M817.145 245.066L816.687 242.507H816.534C814.903 244.544 812.356 245.641 809.401 245.641C804.359 245.641 801.353 241.881 801.353 237.807C801.353 231.174 807.16 227.988 815.974 228.04V227.674C815.974 226.317 815.26 224.384 811.44 224.384C809.023 224.409 806.654 225.075 804.561 226.317L803.136 221.199C804.868 220.206 808.281 218.953 812.815 218.953C821.119 218.953 823.768 223.966 823.768 229.973V238.852C823.768 241.306 823.87 243.656 824.124 245.067L817.145 245.066ZM816.228 233.002C812.152 232.95 808.995 233.942 808.995 237.023C808.995 239.06 810.318 240.053 812.05 240.053C812.934 240.059 813.798 239.781 814.52 239.256C815.242 238.731 815.786 237.987 816.075 237.128C816.179 236.684 816.231 236.228 816.228 235.77V233.002Z" fill="white"/>
<path d="M852.909 235.164V245.714H850.533V241.391H846.43V245.714H844.053V235.164H846.43V239.25H850.533V235.164H852.909Z" fill="white"/>
<path d="M854.883 245.712V235.161H859.522C859.986 235.157 860.445 235.264 860.862 235.473C861.264 235.674 861.625 235.951 861.928 236.289C862.226 236.625 862.464 237.012 862.63 237.434C862.796 237.843 862.882 238.282 862.884 238.726C862.885 239.045 862.846 239.362 862.767 239.67C862.692 239.968 862.58 240.255 862.434 240.525C862.292 240.789 862.114 241.032 861.906 241.245C861.697 241.459 861.46 241.641 861.202 241.788L863.464 245.711H860.782L858.81 242.308H857.26V245.711L854.883 245.712ZM857.26 240.184H859.435C859.579 240.181 859.719 240.142 859.845 240.071C859.971 240 860.079 239.899 860.159 239.776C860.372 239.471 860.479 239.102 860.463 238.727C860.482 238.348 860.358 237.975 860.116 237.688C860.024 237.572 859.91 237.477 859.78 237.411C859.65 237.344 859.507 237.307 859.362 237.301H857.26V240.184Z" fill="white"/>
<path d="M841.957 224.758C841.928 225.045 841.914 225.333 841.915 225.622L840.521 241.367C840.52 242.132 840.373 242.889 840.087 243.595C839.801 244.301 839.383 244.943 838.857 245.483C838.33 246.022 837.705 246.45 837.018 246.742C836.33 247.033 835.594 247.183 834.85 247.181C833.348 247.184 831.906 246.573 830.842 245.483C829.777 244.393 829.177 242.913 829.173 241.367L829.048 239.95C830.603 236.45 832.641 233.199 835.099 230.298C837.046 228.046 839.368 226.17 841.957 224.758Z" fill="white"/>
<path d="M853.466 210.225L844.365 219.561C843.385 220.561 842.665 221.799 842.272 223.161C837.128 225.59 832.444 228.938 828.438 233.05L827.779 225.624C827.78 224.497 827.564 223.381 827.143 222.341C826.723 221.3 826.106 220.355 825.329 219.561L816.229 210.225C815.948 209.94 815.724 209.599 815.571 209.224C815.418 208.849 815.339 208.446 815.339 208.039C815.339 207.632 815.418 207.229 815.571 206.854C815.724 206.478 815.948 206.138 816.229 205.853C816.509 205.563 816.841 205.334 817.207 205.177C817.573 205.021 817.965 204.94 818.362 204.94C818.758 204.94 819.151 205.021 819.517 205.177C819.883 205.334 820.215 205.563 820.494 205.853L830.757 216.368L831.641 217.268C832.072 217.708 832.584 218.055 833.147 218.287C833.711 218.519 834.314 218.631 834.921 218.618C834.755 218.819 834.138 219.512 832.578 220.644C834.675 220.069 836.573 218.9 838.054 217.268L838.059 217.262L838.937 216.368L849.2 205.853C849.48 205.564 849.812 205.334 850.178 205.178C850.544 205.021 850.936 204.94 851.333 204.94C851.729 204.94 852.122 205.021 852.488 205.178C852.854 205.334 853.186 205.564 853.465 205.853C853.747 206.138 853.971 206.479 854.124 206.854C854.277 207.229 854.355 207.632 854.355 208.039C854.355 208.446 854.277 208.849 854.124 209.224C853.971 209.599 853.748 209.94 853.466 210.225Z" fill="white"/>
<path d="M834.851 215.068C835.704 215.07 836.548 214.898 837.336 214.564C838.124 214.23 838.841 213.739 839.444 213.12C840.048 212.501 840.527 211.766 840.855 210.956C841.182 210.146 841.352 209.278 841.353 208.402C841.352 207.525 841.183 206.657 840.855 205.847C840.528 205.037 840.048 204.302 839.445 203.683C838.841 203.064 838.124 202.573 837.336 202.239C836.548 201.905 835.704 201.733 834.851 201.735C833.999 201.733 833.154 201.904 832.366 202.239C831.578 202.573 830.861 203.064 830.257 203.683C829.653 204.302 829.174 205.037 828.846 205.847C828.519 206.657 828.349 207.525 828.348 208.402C828.35 209.279 828.519 210.147 828.846 210.956C829.174 211.766 829.653 212.501 830.257 213.12C830.861 213.739 831.578 214.23 832.366 214.564C833.154 214.899 833.999 215.07 834.851 215.068Z" fill="white"/>
</g>
<path d="M217.368 13.5644H45.1957C20.2348 13.5644 0 33.8952 0 58.9745V217.589C0 242.669 20.2348 263 45.1957 263H217.368C242.329 263 262.563 242.669 262.563 217.589V58.9745C262.563 33.8952 242.329 13.5644 217.368 13.5644Z" fill="white"/>
<path d="M38.7733 83.7393L131.261 46.752V229.857L110.166 218.871C93.3694 210.091 78.8519 197.482 67.7759 182.053C56.6999 166.624 49.373 148.804 46.3819 130.019L38.7733 83.7393Z" fill="#E97B1A"/>
<path d="M223.794 83.7393L131.261 46.752V229.857L156.319 217.635C171.746 210.098 185.139 198.936 195.361 185.095C205.584 171.254 212.336 155.141 215.046 138.122L223.794 83.7393Z" fill="#DF6E12"/>
<path d="M38.7733 83.7393L131.261 46.752V229.857L110.166 218.871C93.3694 210.091 78.8519 197.482 67.7759 182.053C56.6999 166.624 49.373 148.804 46.3819 130.019L38.7733 83.7393Z" fill="#E97B1A"/>
<path d="M223.794 83.7393L131.261 46.752V229.857L156.319 217.635C171.746 210.098 185.139 198.936 195.361 185.095C205.584 171.254 212.336 155.141 215.046 138.122L223.794 83.7393Z" fill="#DF6E12"/>
<defs>
<clipPath id="clip0_19_6">
<rect width="214.427" height="61.2648" fill="white" transform="translate(649.038 201.735)"/>
</clipPath>
</defs>
</svg>